 <svg version="1.1" id="Layer_1" xmlns="http://www.w3.org/2000/svg" xmlns:xlink="http://www.w3.org/1999/xlink" x="0px" y="0px" width="100%" viewBox="0 0 220 94" enable-background="new 0 0 220 94" xml:space="preserve">
   <path fill="#E3F2E8" opacity="1.000000" stroke="none" d="
M138.000000,95.000000 
C92.000015,95.000000 46.500027,95.000000 1.000031,95.000000 
C1.000020,63.666691 1.000020,32.333378 1.000010,1.000051 
C74.333290,1.000034 147.666580,1.000034 220.999908,1.000017 
C220.999939,32.333279 220.999939,63.666561 220.999969,94.999924 
C193.500000,95.000000 166.000000,95.000000 138.000000,95.000000 
M176.262741,62.363552 
C177.102829,63.610397 177.942902,64.857246 178.931931,66.833984 
C180.080917,68.083382 181.007065,69.803879 182.428909,70.476410 
C184.812607,71.603920 187.658005,69.143356 186.870911,66.767906 
C185.408478,62.354389 183.647903,58.040421 182.051666,53.670326 
C179.381775,46.360832 176.386887,39.142319 174.241669,31.680569 
C173.162842,27.928051 170.683960,26.489088 167.900208,27.046572 
C165.730957,27.480999 163.831268,30.040552 162.175980,31.968405 
C161.193161,33.113037 160.859695,34.843826 160.331970,36.345402 
C158.507095,41.537968 156.725037,46.745583 154.251587,52.187458 
C153.661072,53.913731 153.070541,55.640003 152.444305,57.924252 
C152.368408,58.287167 152.292526,58.650085 151.465485,59.176601 
C150.996399,60.804852 150.527313,62.433098 149.984802,64.678040 
C150.660995,66.666763 150.825089,69.838882 152.119492,70.399010 
C154.853729,71.582222 156.949509,69.925789 157.606384,66.653748 
C157.941452,64.984726 159.083069,63.477627 160.815125,61.889214 
C165.999649,61.768581 171.184158,61.647949 176.423843,61.599270 
C176.423843,61.599270 176.473190,61.675331 176.262741,62.363552 
M133.074402,68.994469 
C133.074402,68.994469 133.178436,69.103104 133.971481,69.029404 
C134.622086,67.540337 135.795822,66.064850 135.834885,64.559906 
C136.028839,57.088974 136.178421,49.598377 135.830170,42.138683 
C135.614441,37.517471 136.770859,35.288441 141.797913,35.854103 
C143.248077,36.017288 146.441177,36.734863 145.176331,32.181683 
C145.114563,30.792349 145.052795,29.403017 144.866486,27.192423 
C143.879684,26.762840 142.897446,25.973116 141.905380,25.960608 
C133.911713,25.859812 125.899353,25.624611 117.933067,26.102810 
C115.931992,26.222931 114.076889,28.774845 112.154694,30.209179 
C113.669243,31.927120 115.042389,33.809860 116.763702,35.286823 
C117.516304,35.932583 118.998482,35.980530 120.119179,35.896675 
C123.267944,35.661079 124.133812,37.173832 124.094261,40.073864 
C123.982964,48.233856 123.960220,56.398651 124.148964,64.555855 
C124.183281,66.039192 125.382614,67.495583 126.285614,69.673203 
C128.665024,70.929787 131.109772,72.783745 133.074402,68.994469 
M64.551872,44.404610 
C66.776672,40.511379 67.783455,36.683887 63.856270,32.397659 
C61.582653,30.913813 59.309036,29.429966 56.720257,27.224455 
C50.543491,26.905651 44.359104,26.328838 38.197121,26.510736 
C37.113949,26.542707 35.269886,29.733641 35.230057,31.498491 
C34.963306,43.318649 35.155785,55.148312 35.044098,66.973427 
C35.014999,70.054092 36.330147,71.105568 39.209160,71.062157 
C45.370190,70.969254 51.538559,71.144814 57.693111,70.917564 
C61.825539,70.764977 65.614265,67.304855 66.094582,63.394142 
C66.177597,62.992073 66.260612,62.590004 67.078789,62.054752 
C70.041458,58.555710 69.685287,54.969086 65.783310,51.400227 
C64.918648,50.897739 64.053993,50.395252 63.047501,49.097397 
C63.074841,47.752052 63.102184,46.406704 63.568058,44.911041 
C63.568058,44.911041 63.907032,44.594810 64.551872,44.404610 
M95.604263,52.956657 
C96.889793,52.678646 98.163300,52.270649 99.463417,52.150368 
C101.974716,51.918022 104.725487,52.163509 104.520340,48.352455 
C104.317101,44.576801 101.422470,45.022762 99.015358,44.945084 
C95.414589,44.828888 91.807281,44.914898 88.143829,44.914898 
C88.143829,41.153603 88.143829,38.120148 88.143829,34.756981 
C92.468414,34.756981 96.287910,34.641453 100.096825,34.792519 
C103.303711,34.919704 106.309174,33.916702 106.060028,30.645100 
C105.946220,29.150688 102.445892,26.987177 100.306358,26.757311 
C95.036942,26.191183 89.659531,26.410002 84.338737,26.630898 
C81.479637,26.749596 78.595512,27.583466 78.577469,31.337919 
C78.521439,42.997036 78.395241,54.661083 78.735504,66.310387 
C78.779755,67.825623 81.309578,70.423386 82.837135,70.538284 
C89.130013,71.011581 95.502502,71.005074 101.794464,70.515747 
C103.421394,70.389214 104.862022,67.867149 106.388229,66.445473 
C104.914513,65.106682 103.638557,63.105385 101.918472,62.591911 
C99.617409,61.905003 96.972122,62.352104 94.474571,62.346149 
C87.027878,62.328392 86.435432,61.500214 88.554924,53.092472 
C90.509575,53.092472 92.636429,53.092472 95.604263,52.956657 
z" />
   <path fill="#488254" opacity="1.000000" stroke="none" d="
M95.183777,53.024567 
C92.636429,53.092472 90.509575,53.092472 88.554924,53.092472 
C86.435432,61.500214 87.027878,62.328392 94.474571,62.346149 
C96.972122,62.352104 99.617409,61.905003 101.918472,62.591911 
C103.638557,63.105385 104.914513,65.106682 106.388229,66.445473 
C104.862022,67.867149 103.421394,70.389214 101.794464,70.515747 
C95.502502,71.005074 89.130013,71.011581 82.837135,70.538284 
C81.309578,70.423386 78.779755,67.825623 78.735504,66.310387 
C78.395241,54.661083 78.521439,42.997036 78.577469,31.337919 
C78.595512,27.583466 81.479637,26.749596 84.338737,26.630898 
C89.659531,26.410002 95.036942,26.191183 100.306358,26.757311 
C102.445892,26.987177 105.946220,29.150688 106.060028,30.645100 
C106.309174,33.916702 103.303711,34.919704 100.096825,34.792519 
C96.287910,34.641453 92.468414,34.756981 88.143829,34.756981 
C88.143829,38.120148 88.143829,41.153603 88.143829,44.914898 
C91.807281,44.914898 95.414589,44.828888 99.015358,44.945084 
C101.422470,45.022762 104.317101,44.576801 104.520340,48.352455 
C104.725487,52.163509 101.974716,51.918022 99.463417,52.150368 
C98.163300,52.270649 96.889793,52.678646 95.183777,53.024567 
z" />
   <path fill="#3A7544" opacity="1.000000" stroke="none" d="
M152.216644,59.013004 
C152.292526,58.650085 152.368408,58.287167 152.803207,57.528481 
C153.750290,55.404297 154.338486,53.675884 154.926682,51.947472 
C156.725037,46.745583 158.507095,41.537968 160.331970,36.345402 
C160.859695,34.843826 161.193161,33.113037 162.175980,31.968405 
C163.831268,30.040552 165.730957,27.480999 167.900208,27.046572 
C170.683960,26.489088 173.162842,27.928051 174.241669,31.680569 
C176.386887,39.142319 179.381775,46.360832 182.051666,53.670326 
C183.647903,58.040421 185.408478,62.354389 186.870911,66.767906 
C187.658005,69.143356 184.812607,71.603920 182.428909,70.476410 
C181.007065,69.803879 180.080917,68.083382 178.922760,66.102745 
C178.100128,64.139450 177.286667,62.907387 176.473190,61.675331 
C176.473190,61.675331 176.423843,61.599270 176.362701,61.161125 
C173.757736,58.636154 162.405869,58.077206 160.293488,60.031296 
C159.905594,60.390133 159.992416,61.262180 159.860123,61.897339 
C159.083069,63.477627 157.941452,64.984726 157.606384,66.653748 
C156.949509,69.925789 154.853729,71.582222 152.119492,70.399010 
C150.825089,69.838882 150.660995,66.666763 150.330231,64.272545 
C151.189316,62.249035 151.702972,60.631020 152.216644,59.013004 
M165.007233,52.043491 
C167.871002,52.043491 170.734756,52.043491 174.435394,52.043491 
C172.090393,46.725071 170.223022,42.489895 167.847336,37.101875 
C167.219681,39.627182 166.945084,40.732059 165.990311,41.978027 
C165.499023,43.120544 165.007736,44.263065 164.468491,46.123692 
C164.279846,47.062328 164.091217,48.000969 163.232651,49.049603 
C161.451294,50.654716 161.698761,51.619152 165.007233,52.043491 
z" />
   <path fill="#3E7B4B" opacity="1.000000" stroke="none" d="
M63.189335,49.892761 
C64.053993,50.395252 64.918648,50.897739 65.876900,52.135696 
C66.094864,55.976757 66.219238,59.082348 66.343620,62.187935 
C66.260612,62.590004 66.177597,62.992073 65.642021,63.680077 
C64.355400,64.693169 63.574650,65.494850 62.678837,66.135681 
C55.479279,71.285980 47.342789,68.676735 39.556381,68.699486 
C38.999794,68.701111 37.964314,66.412811 37.950195,65.180107 
C37.824802,54.234318 37.949600,43.285744 37.837173,32.339668 
C37.804901,29.197578 38.818760,27.835321 42.121075,27.955114 
C47.085884,28.135214 52.063339,27.966518 57.035419,27.946119 
C59.309036,29.429966 61.582653,30.913813 63.873394,33.204899 
C63.896023,37.539696 63.901527,41.067253 63.907032,44.594810 
C63.907032,44.594810 63.568058,44.911041 62.980347,45.036545 
C60.519859,47.099072 59.850910,48.833359 63.189335,49.892761 
M44.484409,52.065643 
C44.295685,52.703167 44.106964,53.340691 43.853504,54.858501 
C43.869839,56.917408 43.886173,58.976318 43.431164,61.466434 
C44.030323,62.258469 44.629482,63.050503 46.109367,63.891506 
C48.589291,63.891541 51.315262,64.539932 53.482975,63.717274 
C55.859425,62.815414 57.720837,60.556412 59.868366,58.132084 
C58.921001,56.377216 57.973637,54.622349 56.827724,52.150322 
C52.749001,49.042809 47.702896,49.008087 45.003906,52.004219 
C45.003906,52.004219 45.068165,52.046799 44.484409,52.065643 
M50.238625,33.245804 
C48.071945,33.423805 44.970741,32.416054 44.903561,35.926769 
C44.847599,38.851212 44.762447,42.768353 46.465420,44.498600 
C48.971466,47.044785 57.452248,44.031242 58.644920,40.990376 
C59.897648,37.796394 57.185020,35.026951 50.238625,33.245804 
z" />
   <path fill="#367442" opacity="1.000000" stroke="none" d="
M144.991028,28.013683 
C145.052795,29.403017 145.114563,30.792349 144.648682,32.610756 
C142.964828,33.097717 141.809189,33.187790 140.652328,33.208252 
C133.304977,33.338207 133.246841,33.382854 133.227020,40.809181 
C133.201843,50.240463 133.193848,59.671795 133.178436,69.103104 
C133.178436,69.103104 133.074402,68.994469 132.626953,68.928108 
C130.263443,68.482964 128.347351,68.104179 126.394058,67.276917 
C126.343925,57.887638 126.197891,48.944241 126.371849,40.007069 
C126.464867,35.228256 124.667976,33.012936 119.734741,33.058899 
C118.441803,33.070950 117.133896,31.477303 115.832863,30.621067 
C117.273956,29.736492 118.694710,28.128286 120.159500,28.087116 
C128.430832,27.854637 136.712723,27.998234 144.991028,28.013683 
z" />
   <path fill="#9FC3AA" opacity="1.000000" stroke="none" d="
M56.877838,27.585287 
C52.063339,27.966518 47.085884,28.135214 42.121075,27.955114 
C38.818760,27.835321 37.804901,29.197578 37.837173,32.339668 
C37.949600,43.285744 37.824802,54.234318 37.950195,65.180107 
C37.964314,66.412811 38.999794,68.701111 39.556381,68.699486 
C47.342789,68.676735 55.479279,71.285980 62.678837,66.135681 
C63.574650,65.494850 64.355400,64.693169 65.544807,63.972504 
C65.614265,67.304855 61.825539,70.764977 57.693111,70.917564 
C51.538559,71.144814 45.370190,70.969254 39.209160,71.062157 
C36.330147,71.105568 35.014999,70.054092 35.044098,66.973427 
C35.155785,55.148312 34.963306,43.318649 35.230057,31.498491 
C35.269886,29.733641 37.113949,26.542707 38.197121,26.510736 
C44.359104,26.328838 50.543491,26.905651 56.877838,27.585287 
z" />
   <path fill="#B2CFBA" opacity="1.000000" stroke="none" d="
M144.928757,27.603054 
C136.712723,27.998234 128.430832,27.854637 120.159500,28.087116 
C118.694710,28.128286 117.273956,29.736492 115.832863,30.621067 
C117.133896,31.477303 118.441803,33.070950 119.734741,33.058899 
C124.667976,33.012936 126.464867,35.228256 126.371849,40.007069 
C126.197891,48.944241 126.343925,57.887638 126.281395,67.581978 
C126.152016,68.545151 126.098076,68.754784 126.044136,68.964409 
C125.382614,67.495583 124.183281,66.039192 124.148964,64.555855 
C123.960220,56.398651 123.982964,48.233856 124.094261,40.073864 
C124.133812,37.173832 123.267944,35.661079 120.119179,35.896675 
C118.998482,35.980530 117.516304,35.932583 116.763702,35.286823 
C115.042389,33.809860 113.669243,31.927120 112.154694,30.209181 
C114.076889,28.774845 115.931992,26.222931 117.933067,26.102810 
C125.899353,25.624611 133.911713,25.859812 141.905380,25.960608 
C142.897446,25.973116 143.879684,26.762840 144.928757,27.603054 
z" />
   <path fill="#B6D3BF" opacity="1.000000" stroke="none" d="
M133.574951,69.066254 
C133.193848,59.671795 133.201843,50.240463 133.227020,40.809181 
C133.246841,33.382854 133.304977,33.338207 140.652328,33.208252 
C141.809189,33.187790 142.964828,33.097717 144.579407,33.024147 
C146.441177,36.734863 143.248077,36.017288 141.797913,35.854103 
C136.770859,35.288441 135.614441,37.517471 135.830170,42.138683 
C136.178421,49.598377 136.028839,57.088974 135.834885,64.559906 
C135.795822,66.064850 134.622086,67.540337 133.574951,69.066254 
z" />
   <path fill="#A5C7AE" opacity="1.000000" stroke="none" d="
M160.337616,61.893276 
C159.992416,61.262180 159.905594,60.390133 160.293488,60.031296 
C162.405869,58.077206 173.757736,58.636154 176.335129,61.125145 
C171.184158,61.647949 165.999649,61.768581 160.337616,61.893276 
z" />
   <path fill="#9FC3AA" opacity="1.000000" stroke="none" d="
M66.711205,62.121346 
C66.219238,59.082348 66.094864,55.976757 66.022934,52.410835 
C69.685287,54.969086 70.041458,58.555710 66.711205,62.121346 
z" />
   <path fill="#56926A" opacity="1.000000" stroke="none" d="
M64.229454,44.499710 
C63.901527,41.067253 63.896023,37.539696 63.916611,33.565086 
C67.783455,36.683887 66.776672,40.511379 64.229454,44.499710 
z" />
   <path fill="#71A483" opacity="1.000000" stroke="none" d="
M126.164871,69.318802 
C126.098076,68.754784 126.152016,68.545151 126.318619,68.030457 
C128.347351,68.104179 130.263443,68.482964 132.555725,68.903961 
C131.109772,72.783745 128.665024,70.929787 126.164871,69.318802 
z" />
   <path fill="#96BDA2" opacity="1.000000" stroke="none" d="
M154.589142,52.067463 
C154.338486,53.675884 153.750290,55.404297 152.821060,57.249489 
C153.070541,55.640003 153.661072,53.913731 154.589142,52.067463 
z" />
   <path fill="#96BDA2" opacity="1.000000" stroke="none" d="
M151.841064,59.094803 
C151.702972,60.631020 151.189316,62.249035 150.366943,63.964199 
C150.527313,62.433098 150.996399,60.804852 151.841064,59.094803 
z" />
   <path fill="#56926A" opacity="1.000000" stroke="none" d="
M63.118416,49.495079 
C59.850910,48.833359 60.519859,47.099072 62.761078,45.111702 
C63.102184,46.406704 63.074841,47.752052 63.118416,49.495079 
z" />
   <path fill="#A5C7AE" opacity="1.000000" stroke="none" d="
M176.367966,62.019440 
C177.286667,62.907387 178.100128,64.139450 178.848297,65.737801 
C177.942902,64.857246 177.102829,63.610397 176.367966,62.019440 
z" />
   <path fill="#C4DDCB" opacity="1.000000" stroke="none" d="
M166.670471,41.836945 
C166.945084,40.732059 167.219681,39.627182 167.847336,37.101875 
C170.223022,42.489895 172.090393,46.725071 174.435394,52.043491 
C170.734756,52.043491 167.871002,52.043491 164.542511,51.598927 
C164.019379,50.416107 163.960983,49.677856 163.902588,48.939606 
C164.091217,48.000969 164.279846,47.062328 164.759384,45.589836 
C165.590347,43.982971 166.130417,42.909958 166.670471,41.836945 
z" />
   <path fill="#6B9F7A" opacity="1.000000" stroke="none" d="
M166.330383,41.907486 
C166.130417,42.909958 165.590347,43.982971 164.783371,45.230782 
C165.007736,44.263065 165.499023,43.120544 166.330383,41.907486 
z" />
   <path fill="#6B9F7A" opacity="1.000000" stroke="none" d="
M163.567627,48.994606 
C163.960983,49.677856 164.019379,50.416107 164.104279,51.524033 
C161.698761,51.619152 161.451294,50.654716 163.567627,48.994606 
z" />
   <path fill="#C2DBC9" opacity="1.000000" stroke="none" d="
M50.653828,33.250801 
C57.185020,35.026951 59.897648,37.796394 58.644920,40.990376 
C57.452248,44.031242 48.971466,47.044785 46.465420,44.498600 
C44.762447,42.768353 44.847599,38.851212 44.903561,35.926769 
C44.970741,32.416054 48.071945,33.423805 50.653828,33.250801 
z" />
   <path fill="#D7E9DC" opacity="1.000000" stroke="none" d="
M43.902512,61.035225 
C43.886173,58.976318 43.869839,56.917408 44.184025,54.319527 
C44.699085,53.202633 44.883625,52.624714 45.068161,52.046799 
C45.068165,52.046799 45.003906,52.004219 45.472900,52.027035 
C49.636684,52.322392 53.331474,52.594936 57.026268,52.867481 
C57.973637,54.622349 58.921001,56.377216 59.473186,58.570118 
C54.735714,62.356857 49.886978,62.463413 44.604744,61.151695 
C44.379955,61.069515 43.902508,61.035225 43.902512,61.035225 
z" />
   <path fill="#96BDA1" opacity="1.000000" stroke="none" d="
M44.829529,61.233871 
C49.886978,62.463413 54.735714,62.356857 59.442345,58.948479 
C57.720837,60.556412 55.859425,62.815414 53.482975,63.717274 
C51.315262,64.539932 48.589291,63.891541 45.604294,63.543789 
C45.009327,62.542004 44.919426,61.887939 44.829529,61.233871 
z" />
   <path fill="#548E65" opacity="1.000000" stroke="none" d="
M56.926994,52.508904 
C53.331474,52.594936 49.636684,52.322392 45.493591,52.059551 
C47.702896,49.008087 52.749001,49.042809 56.926994,52.508904 
z" />
   <path fill="#548E65" opacity="1.000000" stroke="none" d="
M44.604740,61.151695 
C44.919426,61.887939 45.009327,62.542004 45.163933,63.519306 
C44.629482,63.050503 44.030323,62.258469 43.666836,61.250832 
C43.902508,61.035225 44.379955,61.069515 44.604740,61.151695 
z" />
   <path fill="#548E65" opacity="1.000000" stroke="none" d="
M44.776283,52.056221 
C44.883625,52.624714 44.699085,53.202633 44.216393,53.879379 
C44.106964,53.340691 44.295685,52.703167 44.776283,52.056221 
z" />
 </svg>