<svg height="36" viewBox="0 0 36 36" width="36" xmlns="http://www.w3.org/2000/svg">
  <g fill="none" fill-rule="evenodd">
    <path d="m0 0h36v36h-36z" />
    <g fill-rule="nonzero" transform="translate(3.75 3.75)">
      <path d="m21.75 6.75-6.75-.75-8.25.75-.75 7.5.75 7.5 7.5.9375 7.5-.9375.75-7.6875z" fill="#fff" />
      <path d="m21.75 28.5 6.75-6.75-3.375-1.5-3.375 1.5-1.5 3.375z" fill="#ea4335" />
      <path d="m5.25 25.125 1.5 3.375h15v-6.75h-15z" fill="#34a853" />
      <path d="m2.25 0c-1.243125 0-2.25 1.006875-2.25 2.25v19.5l3.375 1.5 3.375-1.5v-15h15l1.5-3.375-1.5-3.375z" fill="#4285f4" />
      <path d="m0 21.75v4.5c0 1.243125 1.006875 2.25 2.25 2.25h4.5v-6.75z" fill="#188038" />
      <path d="m21.75 6.75v15h6.75v-15l-3.375-1.5z" fill="#fbbc04" />
      <path d="m28.5 6.75v-4.5c0-1.243125-1.006875-2.25-2.25-2.25h-4.5v6.75z" fill="#1967d2" />
    </g>
  </g>
</svg>